<svg xmlns="http://www.w3.org/2000/svg" width="16" height="24" fill="none"><path fill="#201B21" d="M4.188 8.875V7.187c0-2.144 1.757-3.937 3.937-3.937 2.145 0 3.938 1.793 3.938 3.938v1.687h2.25c.914 0 1.687.773 1.687 1.688v7.312a3.376 3.376 0 0 1-3.375 3.375h-9A3.354 3.354 0 0 1 .25 17.875v-7.313c0-.914.738-1.687 1.688-1.687h2.25Zm1.687 0h4.5V7.187c0-1.23-1.02-2.25-2.25-2.25a2.243 2.243 0 0 0-2.25 2.25v1.688Zm-3.938 1.688v7.312c0 .95.739 1.688 1.688 1.688h9c.914 0 1.688-.739 1.688-1.688v-7.313h-2.25v1.97a.833.833 0 0 1-.844.843c-.492 0-.844-.352-.844-.844v-1.969h-4.5v1.97a.833.833 0 0 1-.844.843c-.492 0-.843-.352-.843-.844v-1.969h-2.25Z"/></svg>