<svg xmlns="http://www.w3.org/2000/svg" width="24" height="24" fill="none"><path fill="#fff" fill-rule="evenodd" d="M0 12C0 5.373 5.373 0 12 0s12 5.373 12 12-5.373 12-12 12S0 18.627 0 12Z" clip-rule="evenodd" opacity=".1"/><path fill="#fff" fill-rule="evenodd" d="M12 5.6c-1.738 0-1.956.008-2.638.039-.682.03-1.147.139-1.554.297-.42.163-.778.382-1.133.738a3.142 3.142 0 0 0-.739 1.134c-.159.407-.267.872-.297 1.553-.03.683-.039.9-.039 2.639 0 1.738.008 1.956.039 2.638.031.682.139 1.147.297 1.554.164.42.382.778.738 1.133.356.356.713.576 1.134.74.407.157.872.265 1.553.296.683.031.9.04 2.639.04 1.738 0 1.956-.009 2.638-.04.682-.03 1.147-.139 1.554-.297.421-.163.778-.383 1.133-.739.356-.355.575-.712.74-1.133.156-.407.264-.873.296-1.553.031-.683.04-.9.04-2.639 0-1.738-.009-1.956-.04-2.639-.032-.681-.14-1.146-.297-1.553a3.141 3.141 0 0 0-.739-1.134 3.128 3.128 0 0 0-1.133-.738c-.408-.158-.873-.266-1.555-.297-.682-.031-.9-.039-2.638-.039H12Zm-.573 1.153H12c1.709 0 1.911.006 2.586.037.624.029.963.133 1.188.22.299.117.512.255.736.48.224.223.362.437.479.735.087.226.192.564.22 1.188.03.675.037.877.037 2.586 0 1.708-.006 1.91-.037 2.585-.029.624-.133.963-.22 1.188a1.978 1.978 0 0 1-.48.735 1.98 1.98 0 0 1-.735.479c-.225.088-.564.192-1.188.22-.675.031-.877.038-2.586.038-1.71 0-1.912-.007-2.586-.038-.624-.029-.963-.133-1.189-.22a1.982 1.982 0 0 1-.736-.479 1.984 1.984 0 0 1-.479-.736c-.087-.225-.192-.564-.22-1.188-.03-.674-.037-.877-.037-2.586 0-1.71.006-1.91.037-2.585.028-.624.133-.963.22-1.189.116-.298.255-.512.48-.736.223-.224.436-.362.735-.479.226-.088.564-.192 1.189-.22.59-.027.819-.035 2.012-.036v.001Zm3.99 1.063a.768.768 0 1 0 0 1.536.768.768 0 0 0 0-1.536Zm-3.416.897a3.287 3.287 0 1 0 0 6.574 3.287 3.287 0 0 0 0-6.574Zm0 1.154a2.133 2.133 0 1 1 0 4.266 2.133 2.133 0 0 1 0-4.266Z" clip-rule="evenodd"/></svg>