<svg xmlns="http://www.w3.org/2000/svg" width="100" height="24" fill="none"><path fill="#A7C6BA" d="M14.073 18.41c-1.91-.71-3.873-.819-5.673-.328-1.255.327-2.455.982-3.545 1.8l-.764.654-.218.219.49.436c.055 0 .055.055.11.109.109.11.218.164.382.273l.327.218.327-.273c.055-.054.164-.163.273-.218A7.856 7.856 0 0 1 9 19.664c1.473-.382 3.055-.328 4.636.272 1.31.491 3.982 1.091 7.2-.272l.11-.055.163-.164c0-.054.055-.054.11-.109.272-.327.545-.654.763-1.036l1.09-1.69-1.745.98c-2.563 1.42-4.909 1.692-7.254.82ZM6.6 12.518c1.473-.382 3.055-.327 4.636.273 1.746.654 6.219 1.582 11.237-2.946l1.09-1.09-.108-.273c-.055-.218-.164-.491-.273-.764l-.273-.763-.545.545c-.055.11-.164.164-.273.273-2.4 2.454-6.11 4.963-10.364 3.436-1.909-.709-3.872-.818-5.672-.327-1.746.49-3.273 1.418-4.691 2.727v-.054l-.819.872c0 .055-.054.055-.109.11l-.163.163.054.218c.055.273.164.546.218.818l.328.873.545-.709c.055-.11.164-.164.218-.273 1.146-1.036 2.728-2.509 4.964-3.109Z"/><path fill="#A7C6BA" d="M1.31 11.536c1.254-1.309 2.672-2.127 4.2-2.563 1.472-.382 3.054-.328 4.636.272 4.909 1.8 9.163-1.145 11.018-2.727l.709-.709.272-.218-.218-.327c-.163-.164-.272-.382-.436-.6l-.327-.437-.382.382-.218.218c-2.291 2.182-5.837 4.418-9.873 2.891-1.91-.709-3.873-.818-5.673-.327-1.145.327-2.236.873-3.327 1.582L.545 9.9l-.272.273-.11.109v.163c-.054.382-.054.764-.108 1.091L0 12.9l.927-.982c.11-.109.218-.272.382-.382ZM15.655 22.118c-.164-.054-.273-.109-.437-.163-1.909-.71-3.873-.819-5.673-.328-.381.11-.763.219-1.145.382l-1.31.6-.326.164 1.09.382.982.327.164.054.164-.054c.163-.055.327-.164.49-.164.11 0 .219-.054.328-.109 1.309-.327 2.727-.327 4.254.164.164.054.273.109.437.163l.272.11.164-.055c.382-.11.818-.218 1.146-.382l1.527-.545-1.582-.382c-.164-.055-.382-.11-.545-.164ZM24 10.827l-.818.818-.327.328c-2.237 2.127-5.837 4.418-9.873 2.89-1.91-.708-3.873-.818-5.673-.327-1.69.491-3.218 1.364-4.582 2.673l-.709.764-.218.272.218.328c.164.218.273.381.382.6l.327.49.382-.49.218-.218c1.31-1.419 2.728-2.291 4.364-2.728 1.473-.382 3.054-.327 4.636.273a9.203 9.203 0 0 0 4.2.49c2.51-.272 5.018-1.69 6.873-3.272.11-.109.218-.163.327-.273l.164-.163v-.164c0-.327.055-.709.055-1.036L24 10.827Z"/><path fill="#A7C6BA" d="M3.273 5.81c.327-.165.709-.274 1.036-.383 1.473-.382 3.055-.327 4.636.273 1.037.382 2.073.545 3.219.545 2.29 0 4.582-.818 6.709-2.4l1.09-.872-.49-.382a2.42 2.42 0 0 0-.6-.436l-.328-.219-.272.219c-.11.054-.164.163-.273.218-2.89 2.182-5.782 2.782-8.51 1.745-1.963-.709-3.926-.873-5.89-.273a6.87 6.87 0 0 1-.545.164l-.11.055-.163.163c0 .055-.055.055-.11.11-.217.327-.49.6-.708.927L.927 6.845l1.691-.872c.273 0 .491-.11.655-.164ZM7.745 2.1l.164.055c.71.272 1.8.545 3.164.545 1.418 0 2.782-.327 4.145-.873l1.691-.818-1.145-.382c-.328-.109-.655-.218-1.037-.272h-.163L14.4.409c-.164.055-.327.164-.49.218-1.637.6-3.274.71-4.855.273L8.564.736 8.4.682l-.164.054c-.327.11-.654.219-.981.382L6 1.664l1.31.381c.108-.054.272 0 .435.055Z"/><path fill="#fff" d="M41.331 9.563c-.053-.497-.277-.883-.67-1.16-.39-.276-.898-.414-1.523-.414-.44 0-.816.066-1.13.199-.315.132-.556.312-.723.54a1.312 1.312 0 0 0-.255.778c0 .242.055.452.165.63.113.178.267.33.46.455.193.121.407.223.642.307.235.083.472.153.71.21l1.091.273c.44.102.862.24 1.267.415.41.174.775.393 1.097.659.325.265.583.585.772.96.19.375.285.814.285 1.318 0 .682-.175 1.282-.523 1.801-.349.515-.852.919-1.512 1.21-.655.288-1.449.432-2.38.432-.906 0-1.692-.14-2.358-.42-.663-.28-1.182-.69-1.557-1.228-.371-.537-.572-1.193-.602-1.965h2.073c.03.405.156.742.376 1.01.22.27.505.47.858.603.355.133.753.199 1.193.199.458 0 .86-.068 1.204-.204.349-.14.621-.334.818-.58a1.4 1.4 0 0 0 .301-.875c-.003-.303-.092-.553-.266-.75-.175-.2-.42-.367-.733-.5a7.051 7.051 0 0 0-1.091-.364l-1.324-.34c-.959-.247-1.716-.62-2.273-1.12-.553-.504-.83-1.172-.83-2.006 0-.685.186-1.286.557-1.8.375-.516.885-.916 1.529-1.2.644-.288 1.373-.431 2.187-.431.826 0 1.55.143 2.17.431.626.284 1.116.68 1.472 1.188.356.504.54 1.083.551 1.739h-2.028Zm11.402-3.2h2.108v7.603c0 .833-.197 1.566-.591 2.199-.39.632-.94 1.127-1.648 1.483-.708.352-1.536.528-2.483.528-.95 0-1.78-.176-2.488-.528-.709-.356-1.258-.85-1.648-1.483-.39-.633-.585-1.366-.585-2.2V6.365h2.108v7.426c0 .485.106.916.318 1.295.216.379.519.676.909.892.39.212.852.319 1.386.319.534 0 .996-.107 1.387-.319.394-.216.697-.513.909-.892.212-.379.318-.81.318-1.295V6.364Zm13.962 0V18H64.82l-5.483-7.926h-.097V18h-2.108V6.364h1.887l5.477 7.932h.102V6.364h2.097ZM82.92 10.29h-2.126a2.646 2.646 0 0 0-.335-.926 2.491 2.491 0 0 0-1.437-1.12 3.236 3.236 0 0 0-.995-.147c-.632 0-1.193.159-1.681.477-.489.314-.872.776-1.148 1.386-.277.606-.415 1.347-.415 2.222 0 .89.138 1.64.415 2.25.28.606.663 1.064 1.148 1.375.488.307 1.047.46 1.676.46.348 0 .674-.045.977-.136.307-.095.581-.233.824-.415a2.533 2.533 0 0 0 .972-1.58l2.124.012a4.575 4.575 0 0 1-.517 1.556 4.59 4.59 0 0 1-1.028 1.285c-.424.367-.92.655-1.489.863a5.555 5.555 0 0 1-1.892.307c-1.022 0-1.935-.237-2.738-.71-.803-.474-1.436-1.157-1.898-2.051-.462-.894-.693-1.966-.693-3.216 0-1.254.233-2.326.699-3.216.465-.894 1.1-1.578 1.903-2.051.803-.474 1.712-.71 2.727-.71.648 0 1.25.09 1.807.272a4.628 4.628 0 0 1 1.489.801c.435.349.793.777 1.074 1.285.284.503.47 1.079.556 1.727Zm12.328 1.892c0 1.254-.235 2.327-.705 3.221-.466.89-1.102 1.572-1.91 2.046-.802.473-1.713.71-2.732.71-1.019 0-1.932-.237-2.739-.71-.803-.477-1.439-1.161-1.909-2.051-.466-.894-.699-1.966-.699-3.216 0-1.254.233-2.326.7-3.216.469-.894 1.105-1.578 1.908-2.051.807-.474 1.72-.71 2.739-.71s1.93.236 2.733.71c.807.473 1.443 1.157 1.909 2.05.47.891.705 1.963.705 3.217Zm-2.12 0c0-.883-.138-1.627-.415-2.233-.272-.61-.651-1.07-1.136-1.38-.485-.315-1.043-.472-1.676-.472s-1.191.157-1.676.471c-.485.31-.866.771-1.142 1.38-.273.607-.41 1.351-.41 2.234 0 .882.137 1.629.41 2.239.276.606.657 1.066 1.142 1.38.485.31 1.043.466 1.676.466s1.191-.155 1.676-.466c.485-.314.864-.774 1.136-1.38.277-.61.415-1.357.415-2.24Zm4.554 5.943c-.345 0-.64-.121-.886-.364a1.178 1.178 0 0 1-.364-.886c-.004-.34.118-.633.364-.875s.541-.364.886-.364c.334 0 .623.122.87.364a1.194 1.194 0 0 1 .198 1.506c-.113.19-.265.34-.454.454-.186.11-.39.165-.614.165Z"/></svg>