<svg xmlns="http://www.w3.org/2000/svg" width="24" height="24" fill="none"><path fill="#fff" fill-rule="evenodd" d="M0 12C0 5.373 5.373 0 12 0s12 5.373 12 12-5.373 12-12 12S0 18.627 0 12Z" clip-rule="evenodd" opacity=".1"/><path fill="#fff" fill-rule="evenodd" d="M17 7.875c.552.15.985.596 1.133 1.162.267 1.025.267 3.163.267 3.163s0 2.138-.267 3.163A1.625 1.625 0 0 1 17 16.525c-.998.275-5 .275-5 .275s-4.004 0-5.002-.275a1.625 1.625 0 0 1-1.131-1.162C5.6 14.338 5.6 12.2 5.6 12.2s0-2.138.268-3.163c.147-.566.58-1.011 1.131-1.162C7.997 7.6 12 7.6 12 7.6s4.003 0 5 .275ZM10.8 10.4v4l3.2-2-3.2-2Z" clip-rule="evenodd"/></svg>